<svg width="28" height="28" viewBox="-1 -1 26 26" fill="none" xmlns="http://www.w3.org/2000/svg">
	<path stroke="white" stroke-width="1.5" fill-rule="evenodd" clip-rule="evenodd" d="M3.46597 7.5071C3.30382 7.34641 3.13571 7.10007 3.02082 6.94481C2.97286 6.88001 3.01233 6.78938 3.09245 6.78045C3.34259 6.75257 3.78565 6.70394 4.12066 6.68717C4.92441 6.64693 6.3861 6.60702 6.3861 6.60702C6.3861 6.60702 6.68428 5.43086 6.91699 4.62507C7.08743 4.03487 7.37509 3.21232 7.5105 2.83177C7.5571 2.70084 7.66409 2.60204 7.79798 2.56476C8.31847 2.41983 9.45355 2.05044 10.3709 1.70896C10.7899 1.55296 11.1136 1.40046 11.4305 1.25115C11.804 1.07519 12.1681 0.90366 12.6678 0.736086C13.7529 0.372143 15.3728 0.108439 16.0746 0.00453817C16.2757 -0.0252259 16.4664 0.0939745 16.53 0.287025C16.736 0.912521 17.1773 2.29388 17.3958 3.28939C17.6589 4.48851 17.9814 6.37421 17.9814 6.37421C17.9814 6.37421 19.0229 6.59128 19.7317 6.8118C20.3218 6.99538 21.109 7.35199 21.5207 7.54572C21.6124 7.58888 21.5969 7.71996 21.4974 7.73951C20.8788 7.8611 19.4401 8.14095 17.9894 8.2843L18.0115 8.60172L18.0159 8.60119C18.0159 8.60119 18.0547 9.31201 18.0708 10.0345C18.0888 10.8454 17.9888 12.0759 17.9444 12.5732C17.9336 12.6935 17.8246 12.7798 17.7049 12.7638L16.9445 12.6622C16.9445 12.6622 16.7898 14.0711 16.6116 15.0447C16.8955 15.2672 17.5618 15.7985 17.9894 16.2114C18.4929 16.6975 19.1395 17.4773 19.3852 17.7787C20.1902 18.7664 19.9264 18.8264 18.5584 20.037C17.1904 21.2475 15.3886 23.9991 15.3886 23.9991L15.3884 23.9988L15.3886 24L4.89223 13.3431C4.78804 13.2337 4.7494 13.0774 4.79063 12.932L6.10174 8.27677L6.10297 8.27652L6.24431 7.75915C5.92286 7.83773 5.5945 7.93525 5.30602 8.02092C4.88091 8.14717 4.5423 8.24773 4.44032 8.224C4.241 8.17762 3.80153 7.83961 3.46597 7.5071Z" fill="#292929"/>
	<path d="M13.1792 9.35081L17.522 10.3185L17.4615 7.94758L13.3365 7.18548L13.1792 9.35081Z" fill="white"/>
	<path d="M5.26793 13.1745L12.6228 20.8439L15.7437 19.5858L16.2518 16.0294L16.5905 12.4971H17.6308L17.8244 10.6342L15.9167 9.71346L8.36473 8.224L5.26793 13.1745Z" fill="#F9E9E5"/>
	<path fill-rule="evenodd" clip-rule="evenodd" d="M3.46597 7.5071C3.30382 7.34641 3.13571 7.10007 3.02082 6.94481C2.97286 6.88001 3.01233 6.78938 3.09245 6.78045C3.34259 6.75257 3.78565 6.70394 4.12066 6.68717C4.92441 6.64693 6.3861 6.60702 6.3861 6.60702C6.3861 6.60702 6.68428 5.43086 6.91699 4.62507C7.08743 4.03487 7.37509 3.21232 7.5105 2.83177C7.5571 2.70084 7.66409 2.60204 7.79798 2.56476C8.31847 2.41983 9.45355 2.05044 10.3709 1.70896C10.7899 1.55296 11.1136 1.40046 11.4305 1.25115C11.804 1.07519 12.1681 0.90366 12.6678 0.736086C13.7529 0.372143 15.3728 0.108439 16.0746 0.00453817C16.2757 -0.0252259 16.4664 0.0939745 16.53 0.287025C16.736 0.912521 17.1773 2.29388 17.3958 3.28939C17.6589 4.48851 17.9814 6.37421 17.9814 6.37421C17.9814 6.37421 19.0229 6.59128 19.7317 6.8118C20.3218 6.99538 21.109 7.35199 21.5207 7.54572C21.6124 7.58888 21.5969 7.71996 21.4974 7.73951C20.8788 7.8611 19.4401 8.14095 17.9894 8.2843L18.0115 8.60172L18.0159 8.60119C18.0159 8.60119 18.0547 9.31201 18.0708 10.0345C18.0888 10.8454 17.9888 12.0759 17.9444 12.5732C17.9336 12.6935 17.8246 12.7798 17.7049 12.7638L16.9445 12.6622C16.9445 12.6622 16.7898 14.0711 16.6116 15.0447C16.8955 15.2672 17.5618 15.7985 17.9894 16.2114C18.4929 16.6975 19.1395 17.4773 19.3852 17.7787C20.1902 18.7664 19.9264 18.8264 18.5584 20.037C17.1904 21.2475 15.3886 23.9991 15.3886 23.9991L15.3884 23.9988L15.3886 24L4.89223 13.3431C4.78804 13.2337 4.7494 13.0774 4.79063 12.932L6.10174 8.27677L6.10297 8.27652L6.24431 7.75915C5.92286 7.83773 5.5945 7.93525 5.30602 8.02092C4.88091 8.14717 4.5423 8.24773 4.44032 8.224C4.241 8.17762 3.80153 7.83961 3.46597 7.5071ZM10.8427 9.27797C13.3243 9.71893 16.766 10.7206 17.5402 10.9361C17.5424 11.7712 17.5424 12.3419 17.5424 12.3419L16.6066 12.0405C16.4691 11.9962 16.3276 12.0975 16.3249 12.242C16.3138 12.8423 16.2124 14.2872 16.0987 15.2612C16.035 15.8069 15.9151 16.6982 15.819 17.076C15.789 17.194 15.6661 17.2615 15.5499 17.225L13.1662 16.4766C13.0438 16.4382 12.9154 16.5156 12.8923 16.6418L12.2697 20.037L6.39048 13.5609C6.64742 13.3685 7.35315 12.8454 7.86242 12.5186C8.26714 12.2589 8.79457 11.9907 9.22625 11.7712C9.65937 11.5509 9.99611 11.3797 10.0158 11.3153C10.0407 11.2335 10.0286 11.1804 9.95844 11.1446C9.91034 11.12 9.84244 11.1489 9.76816 11.1806C9.6929 11.2126 9.61107 11.2475 9.53662 11.2323C9.38869 11.2022 9.02124 10.1644 9.00071 9.71307C8.98709 9.41369 9.05734 9.18661 9.15215 9.01891C9.74948 9.10062 10.3431 9.18921 10.8427 9.27797ZM16.2124 8.36904C16.2419 8.36939 16.2716 8.3696 16.3015 8.36968C16.3019 8.49532 16.2978 8.64552 16.2799 8.7432C16.2444 8.93824 16.1337 9.24346 16.1337 9.24346C16.1337 9.24346 15.4642 9.31748 14.7264 8.97931C14.3469 8.80539 13.9136 8.46205 13.9136 8.46205L13.6571 8.17936C14.3124 8.28144 15.1019 8.35604 16.2124 8.36904Z" fill="#292929"/>
</svg>
