<svg width="96" height="124" viewBox="0 0 96 124" fill="none" xmlns="http://www.w3.org/2000/svg">
<path fill-rule="evenodd" clip-rule="evenodd" d="M2.40752 38.7867C1.56972 37.9565 0.701185 36.6837 0.107579 35.8815C-0.140206 35.5467 0.0636954 35.0785 0.477674 35.0323C1.77004 34.8883 4.05917 34.637 5.7901 34.5504C9.94279 34.3425 17.4949 34.1363 17.4949 34.1363C17.4949 34.1363 19.0354 28.0595 20.2378 23.8962C21.1184 20.8468 22.6046 16.597 23.3043 14.6308C23.545 13.9544 24.0978 13.4439 24.7895 13.2513C27.4788 12.5025 33.3433 10.5939 38.0827 8.82963C40.2479 8.02364 41.9204 7.23571 43.5578 6.46429C45.4876 5.55513 47.3687 4.66891 49.9502 3.80311C55.5568 1.92274 63.926 0.560267 67.5523 0.0234472C68.5911 -0.130334 69.5767 0.485535 69.9052 1.48296C70.9694 4.71469 73.2496 11.8517 74.3781 16.9952C75.7375 23.1906 77.4038 32.9334 77.4038 32.9334C77.4038 32.9334 82.7849 34.0549 86.4473 35.1943C89.4962 36.1428 93.5633 37.9853 95.6903 38.9862C96.1641 39.2092 96.0839 39.8865 95.5701 39.9875C92.3739 40.6157 84.9404 42.0616 77.4455 42.8022L77.5597 44.4422L77.5822 44.4395C77.5822 44.4395 77.7829 48.112 77.8658 51.8447C77.9588 56.0345 77.4419 62.3923 77.2125 64.9615C77.157 65.5831 76.594 66.0292 75.9754 65.9465L72.0465 65.4216C72.0465 65.4216 71.2475 72.7004 70.3268 77.731C71.7935 78.8807 75.2359 81.6255 77.4455 83.7589C80.0467 86.2706 83.3875 90.2992 84.6569 91.8566C88.8163 96.9597 87.4533 97.2699 80.3851 103.524C73.3169 109.779 64.0078 123.995 64.0078 123.995L64.0067 123.994L64.0079 124L9.77653 68.9391C9.2382 68.374 9.03858 67.5664 9.25157 66.8156L16.0257 42.7633L16.032 42.762L16.7623 40.0889C15.1014 40.495 13.4049 40.9988 11.9145 41.4414C9.71805 42.0937 7.96855 42.6133 7.44166 42.4907C6.41183 42.251 4.14125 40.5047 2.40752 38.7867ZM40.5204 47.9362C53.3423 50.2145 71.1245 55.39 75.1242 56.5033C75.1356 60.8178 75.1356 63.7666 75.1356 63.7666L70.3009 62.2092C69.5902 61.9803 68.8592 62.5037 68.8454 63.2502C68.7879 66.3519 68.264 73.8174 67.6765 78.8496C67.3473 81.6687 66.7281 86.2741 66.2314 88.226C66.0763 88.8358 65.4416 89.1844 64.8412 88.9959L52.5255 85.129C51.8931 84.9305 51.2297 85.3305 51.1101 85.9824L47.8933 103.524L17.5175 70.0647C18.845 69.0706 22.4913 66.3677 25.1225 64.6795C27.2135 63.3379 29.9386 61.9521 32.169 60.8178C34.4068 59.6798 36.1466 58.795 36.2481 58.4624C36.3771 58.0397 36.3143 57.7656 35.952 57.5803C35.7034 57.4532 35.3526 57.6027 34.9688 57.7662C34.58 57.9319 34.1572 58.112 33.7726 58.0336C33.0082 57.8778 31.1098 52.5163 31.0037 50.1842C30.9333 48.6374 31.2963 47.4642 31.7861 46.5977C34.8723 47.0199 37.9392 47.4776 40.5204 47.9362ZM68.264 43.2401C68.4164 43.2418 68.57 43.2429 68.7245 43.2434C68.7263 43.8925 68.7051 44.6685 68.6131 45.1732C68.4294 46.1809 67.8577 47.7579 67.8577 47.7579C67.8577 47.7579 64.3985 48.1403 60.5863 46.3931C58.6256 45.4945 56.3868 43.7206 56.3868 43.7206L55.0618 42.2601C58.4475 42.7874 62.5266 43.1729 68.264 43.2401Z" fill="black"/>
</svg>
