<svg width="267" height="134" viewBox="-5 -5 267 134" fill="none" xmlns="http://www.w3.org/2000/svg">
	<path stroke="white" stroke-width="2" fill-rule="evenodd" clip-rule="evenodd" d="M0.111977 35.8815C0.705582 36.6837 1.57557 37.9565 2.41337 38.7867C4.1471 40.5047 6.41768 42.251 7.44751 42.4907C7.97439 42.6133 9.72322 42.0939 11.9196 41.4416C13.41 40.999 15.1073 40.495 16.7681 40.0889L16.0379 42.762L16.0315 42.7633L9.25742 66.8156C9.04442 67.5664 9.24405 68.374 9.78238 68.9391L64.0138 124L64.0125 123.994L64.0136 123.995C64.0136 123.995 73.3228 109.779 80.3909 103.524C81.0373 102.952 81.6359 102.43 82.187 101.949C87.6622 97.1731 88.4417 96.493 84.6627 91.8566C83.3933 90.2992 80.0525 86.2706 77.4513 83.7589C75.2418 81.6255 71.7993 78.8807 70.3326 77.7309C71.2533 72.7004 72.0524 65.4216 72.0524 65.4216L75.9813 65.9465C76.5999 66.0292 77.1628 65.5831 77.2183 64.9615C77.4477 62.3923 77.9646 56.0345 77.8716 51.8447C77.7887 48.112 77.588 44.4395 77.588 44.4395L77.5655 44.4422L77.4513 42.8022C84.9462 42.0616 92.3797 40.6157 95.5759 39.9874C96.0897 39.8865 96.1699 39.2092 95.6961 38.9862C93.5691 37.9853 89.502 36.1428 86.4531 35.1943C82.7907 34.0549 77.4096 32.9334 77.4096 32.9334C77.4096 32.9334 75.7434 23.1906 74.384 16.9952C73.2554 11.8517 70.9753 4.71469 69.911 1.48296C69.5825 0.485535 68.5969 -0.130334 67.5581 0.0234472C63.9319 0.560267 55.5626 1.92274 49.956 3.80311C47.3745 4.66891 45.4934 5.55513 43.5636 6.46429C41.9262 7.23571 40.2537 8.02364 38.0886 8.82963C33.3492 10.5939 27.4846 12.5025 24.7954 13.2512C24.1037 13.4439 23.5508 13.9544 23.3101 14.6308C22.6105 16.597 21.1242 20.8468 20.2436 23.8962C19.0413 28.0595 17.5007 34.1363 17.5007 34.1363C17.5007 34.1363 9.94864 34.3425 5.79595 34.5504C4.06502 34.637 1.77443 34.8883 0.482056 35.0323C0.068078 35.0785 -0.135808 35.5467 0.111977 35.8815Z" fill="#292929" />
	<path d="M72.6519 40.5L49.1519 37.5L53.6519 47.5L70.1519 52.5L72.6519 40.5Z" fill="white"/>
	<path d="M52.4019 110L12.1519 69L23.6519 59.5L27.1519 42L76.1519 53.75V64.75L71.1519 64L69.1519 77V90.5L52.4019 110Z" fill="#F9E9E4"/>
	<path fill-rule="evenodd" clip-rule="evenodd" d="M0.111977 35.8815C0.705582 36.6837 1.57557 37.9565 2.41337 38.7867C4.1471 40.5047 6.41768 42.251 7.44751 42.4907C7.97439 42.6133 9.72322 42.0939 11.9196 41.4416C13.41 40.999 15.1073 40.495 16.7681 40.0889L16.0379 42.762L16.0315 42.7633L9.25742 66.8156C9.04442 67.5664 9.24405 68.374 9.78238 68.9391L64.0138 124L64.0125 123.994L64.0136 123.995C64.0136 123.995 73.3228 109.779 80.3909 103.524C81.0373 102.952 81.6359 102.43 82.187 101.949C87.6622 97.1731 88.4417 96.493 84.6627 91.8566C83.3933 90.2992 80.0525 86.2706 77.4513 83.7589C75.2418 81.6255 71.7993 78.8807 70.3326 77.7309C71.2533 72.7004 72.0524 65.4216 72.0524 65.4216L75.9813 65.9465C76.5999 66.0292 77.1628 65.5831 77.2183 64.9615C77.4477 62.3923 77.9646 56.0345 77.8716 51.8447C77.7887 48.112 77.588 44.4395 77.588 44.4395L77.5655 44.4422L77.4513 42.8022C84.9462 42.0616 92.3797 40.6157 95.5759 39.9874C96.0897 39.8865 96.1699 39.2092 95.6961 38.9862C93.5691 37.9853 89.502 36.1428 86.4531 35.1943C82.7907 34.0549 77.4096 32.9334 77.4096 32.9334C77.4096 32.9334 75.7434 23.1906 74.384 16.9952C73.2554 11.8517 70.9753 4.71469 69.911 1.48296C69.5825 0.485535 68.5969 -0.130334 67.5581 0.0234472C63.9319 0.560267 55.5626 1.92274 49.956 3.80311C47.3745 4.66891 45.4934 5.55513 43.5636 6.46429C41.9262 7.23571 40.2537 8.02364 38.0886 8.82963C33.3492 10.5939 27.4846 12.5025 24.7954 13.2512C24.1037 13.4439 23.5508 13.9544 23.3101 14.6308C22.6105 16.597 21.1242 20.8468 20.2436 23.8962C19.0413 28.0595 17.5007 34.1363 17.5007 34.1363C17.5007 34.1363 9.94864 34.3425 5.79595 34.5504C4.06502 34.637 1.77443 34.8883 0.482056 35.0323C0.068078 35.0785 -0.135808 35.5467 0.111977 35.8815Z M73.5182 56.0495C67.5935 54.3754 52.0549 49.9846 40.5262 47.9362C37.9451 47.4776 34.8782 47.0199 31.792 46.5977C31.3021 47.4642 30.9391 48.6374 31.0095 50.1842C31.1156 52.5163 33.0141 57.8778 33.7784 58.0336C34.1631 58.112 34.5858 57.9319 34.9747 57.7662C35.3585 57.6027 35.7093 57.4532 35.9578 57.5803C36.3202 57.7656 36.3829 58.0397 36.2539 58.4624C36.1524 58.795 34.4126 59.6798 32.1748 60.8178C29.9445 61.9521 27.2194 63.3379 25.1284 64.6795C22.4971 66.3677 18.8509 69.0706 17.5233 70.0647L47.8991 103.524L51.116 85.9824C51.2355 85.3305 51.8989 84.9305 52.5313 85.129L64.8471 88.9959C65.4474 89.1844 66.0821 88.8358 66.2373 88.226C66.7339 86.2741 67.3531 81.6687 67.6823 78.8496C68.2699 73.8174 68.7938 66.3519 68.8512 63.2502C68.865 62.5037 69.5961 61.9803 70.3068 62.2092L75.1414 63.7666C75.1414 63.7666 75.1414 60.8178 75.13 56.5033C74.7265 56.391 74.1829 56.2374 73.5182 56.0495ZM68.7304 43.2434C68.5758 43.2429 68.4223 43.2418 68.2699 43.2401C62.5324 43.1729 58.4533 42.7874 55.0676 42.26L56.3926 43.7206C56.3926 43.7206 58.6315 45.4945 60.5922 46.3931C64.4044 48.1403 67.8635 47.7579 67.8635 47.7579C67.8635 47.7579 68.4352 46.1809 68.6189 45.1732C68.7109 44.6685 68.7321 43.8925 68.7304 43.2434Z" fill="#292929"/>
	<path d="M223.705 72.5063C227.276 76.3125 232.539 78.5211 238.977 78.5211C243.535 78.5211 247.435 77.0643 249.926 74.5739C251.852 72.6472 252.98 70.1098 252.98 67.1494C252.98 62.2154 249.503 59.9129 244.428 57.9862C239.917 56.2006 238.93 55.7307 238.93 54.368C238.93 53.0992 240.293 52.0655 242.501 52.0655C245.838 52.0655 248.704 53.4752 251.195 55.6367L256.833 49.387C253.685 46.3796 249.127 44.5 243.347 44.5C238.789 44.5 234.936 46.0037 232.445 48.4942C230.566 50.3738 229.438 52.8643 229.438 55.6837C229.438 60.5237 232.774 62.7323 237.943 64.7529C242.548 66.5385 243.441 67.1494 243.441 68.4651C243.441 69.9688 241.89 70.9086 239.729 70.9086C236.111 70.9086 232.774 69.4049 229.579 66.4445L223.705 72.5063Z" fill="#BF9F40"/>
	<path fill-rule="evenodd" clip-rule="evenodd" d="M144.972 100.812C144.972 92.4944 138.676 86.1037 129.278 86.1037C123.733 86.1037 118.94 88.3123 115.462 91.7896C111.844 95.4078 109.729 100.342 109.729 105.464C109.729 113.828 116.026 120.219 125.424 120.219C130.969 120.219 135.762 117.963 139.239 114.533C142.858 110.915 144.972 105.934 144.972 100.812ZM132.473 109.364C130.875 110.962 128.714 112.042 126.223 112.042C121.524 112.042 118.987 108.941 118.987 104.759C118.987 101.986 120.208 98.9791 122.229 96.9115C123.827 95.3138 125.988 94.28 128.479 94.28C133.178 94.28 135.715 97.3814 135.715 101.564C135.715 104.336 134.493 107.343 132.473 109.364Z" fill="#BF9F40"/>
	<path d="M153.828 86.7146L144.947 119.608H154.016L159.091 100.624L167.972 119.608H175.96L184.794 86.7146H175.772L170.838 104.994L162.286 86.7146H153.828Z" fill="#BF9F40"/>
	<path fill-rule="evenodd" clip-rule="evenodd" d="M181.658 119.608L190.539 86.7146H201.159C207.55 86.7146 211.544 88.4532 214.034 90.9437C216.478 93.3872 217.605 96.5826 217.605 100.577C217.605 105.511 215.726 110.022 212.202 113.546C208.254 117.493 202.569 119.608 194.956 119.608H181.658ZM206.61 96.7705C205.341 95.5488 203.32 94.75 200.172 94.75H197.494L192.983 111.526H195.99C199.843 111.526 203.273 110.351 205.435 108.189C207.174 106.451 208.254 103.913 208.254 101.282C208.254 99.261 207.643 97.8043 206.61 96.7705Z" fill="#BF9F40"/>
	<path d="M78.5591 114.392C80.9556 118.104 85.1377 120.172 89.7428 120.172C94.1129 120.172 97.4492 118.903 99.7987 116.553C102.054 114.298 103.417 111.526 104.686 106.779L110.043 86.7146H100.974L96.0395 105.041C95.0997 108.518 94.4888 109.787 93.549 110.68C92.6092 111.666 91.3875 112.183 90.0247 112.183C88.0511 112.183 86.4535 111.291 84.7618 108.988L78.5591 114.392Z" fill="#BF9F40"/>
	<path d="M192.788 77.9572L201.669 45.0639H227.984L225.869 52.7703H208.577L207.214 57.7983H222.909L220.982 64.9408H205.287L203.878 70.2037H221.452L219.385 77.9572H192.788Z" fill="#BF9F40"/>
	<path d="M152.084 77.9572L160.966 45.0639H170.129L174.499 57.7983L185.683 45.0639H195.926L187.092 77.9572H177.929L183.004 59.067L171.21 71.9424H171.022L166.182 59.114L161.107 77.9572H152.084Z" fill="#BF9F40"/>
	<path fill-rule="evenodd" clip-rule="evenodd" d="M112.735 77.9572L135.619 44.8289H144.548L149.67 77.9572H140.084L139.285 72.0364H126.597L122.65 77.9572H112.735ZM131.202 64.9408H138.58L137.358 55.5427L131.202 64.9408Z" fill="#BF9F40"/>
	<path fill-rule="evenodd" clip-rule="evenodd" d="M82.0577 77.9572L90.9389 45.0639H104.613C113.541 45.0639 116.455 48.7291 116.455 52.9583C116.455 57.1404 113.682 60.2418 109.077 61.3696C111.991 62.4033 114.058 64.5649 114.058 67.9482C114.058 73.634 109.312 77.9572 99.1152 77.9572H82.0577ZM92.9125 70.6267H99.8201C102.968 70.6267 104.895 69.217 104.895 67.1494C104.895 65.4577 103.532 64.5649 100.901 64.5649H94.5572L92.9125 70.6267ZM96.2958 58.1742H102.452C105.741 58.1742 107.48 56.9055 107.48 54.8379C107.48 53.2872 106.258 52.3944 103.485 52.3944H97.7995L96.2958 58.1742Z" fill="#BF9F40"/>
</svg>
