<svg width="96" height="125" viewBox="0 0 96 125" fill="none" xmlns="http://www.w3.org/2000/svg">
<path fill-rule="evenodd" clip-rule="evenodd" d="M2.40752 39.2867C1.56972 38.4565 0.701185 37.1837 0.107579 36.3815C-0.140206 36.0467 0.0636954 35.5785 0.477674 35.5323C1.77004 35.3883 4.05917 35.137 5.7901 35.0504C9.94279 34.8425 17.4949 34.6363 17.4949 34.6363C17.4949 34.6363 19.0354 28.5595 20.2378 24.3962C21.1184 21.3468 22.6046 17.097 23.3043 15.1308C23.545 14.4544 24.0978 13.9439 24.7895 13.7513C27.4788 13.0025 33.3433 11.0939 38.0827 9.32963C40.2479 8.52364 41.9204 7.73571 43.5578 6.96429C45.4876 6.05513 47.3687 5.16891 49.9502 4.30311C55.5568 2.42274 63.926 1.06027 67.5523 0.523447C68.5911 0.369666 69.5767 0.985535 69.9052 1.98296C70.9694 5.21469 73.2496 12.3517 74.3781 17.4952C75.7375 23.6906 77.4038 33.4334 77.4038 33.4334C77.4038 33.4334 82.7849 34.5549 86.4473 35.6943C89.4962 36.6428 93.5633 38.4853 95.6903 39.4862C96.1641 39.7092 96.0839 40.3865 95.5701 40.4875C92.3739 41.1157 84.9404 42.5616 77.4455 43.3022L77.5597 44.9422L77.5822 44.9395C77.5822 44.9395 77.7829 48.612 77.8658 52.3447C77.9588 56.5345 77.4419 62.8923 77.2125 65.4615C77.157 66.0831 76.594 66.5292 75.9754 66.4465L72.0465 65.9216C72.0465 65.9216 71.2475 73.2004 70.3268 78.231C71.7935 79.3807 75.2359 82.1255 77.4455 84.2589C80.0467 86.7706 83.3875 90.7992 84.6569 92.3566C88.8163 97.4597 87.4533 97.7699 80.3851 104.024C73.3169 110.279 64.0078 124.495 64.0078 124.495L64.0067 124.494L64.0079 124.5L9.77653 69.4391C9.2382 68.874 9.03858 68.0664 9.25157 67.3156L16.0257 43.2633L16.032 43.262L16.7623 40.5889C15.1014 40.995 13.4049 41.4988 11.9145 41.9414C9.71805 42.5937 7.96855 43.1133 7.44166 42.9907C6.41183 42.751 4.14125 41.0047 2.40752 39.2867ZM40.5204 48.4362C53.3423 50.7145 71.1245 55.89 75.1242 57.0033C75.1356 61.3178 75.1356 64.2666 75.1356 64.2666L70.3009 62.7092C69.5902 62.4803 68.8592 63.0037 68.8454 63.7502C68.7879 66.8519 68.264 74.3174 67.6765 79.3496C67.3473 82.1687 66.7281 86.7741 66.2314 88.726C66.0763 89.3358 65.4416 89.6844 64.8412 89.4959L52.5255 85.629C51.8931 85.4305 51.2297 85.8305 51.1101 86.4824L47.8933 104.024L17.5175 70.5647C18.845 69.5706 22.4913 66.8677 25.1225 65.1795C27.2135 63.8379 29.9386 62.4521 32.169 61.3178C34.4068 60.1798 36.1466 59.295 36.2481 58.9624C36.3771 58.5397 36.3143 58.2656 35.952 58.0803C35.7034 57.9532 35.3526 58.1027 34.9688 58.2662C34.58 58.4319 34.1572 58.612 33.7726 58.5336C33.0082 58.3778 31.1098 53.0163 31.0037 50.6842C30.9333 49.1374 31.2963 47.9642 31.7861 47.0977C34.8723 47.5199 37.9392 47.9776 40.5204 48.4362ZM68.264 43.7401C68.4164 43.7418 68.57 43.7429 68.7245 43.7434C68.7263 44.3925 68.7051 45.1685 68.6131 45.6732C68.4294 46.6809 67.8577 48.2579 67.8577 48.2579C67.8577 48.2579 64.3985 48.6403 60.5863 46.8931C58.6256 45.9945 56.3868 44.2206 56.3868 44.2206L55.0618 42.7601C58.4475 43.2874 62.5266 43.6729 68.264 43.7401Z" fill="white"/>
</svg>
