<svg width="257" height="125" viewBox="0 0 257 125" fill="none" xmlns="http://www.w3.org/2000/svg">
<path fill-rule="evenodd" clip-rule="evenodd" d="M0.111977 36.3815C0.705582 37.1837 1.57557 38.4565 2.41337 39.2867C4.1471 41.0047 6.41768 42.751 7.44751 42.9907C7.97439 43.1133 9.72322 42.5939 11.9196 41.9416C13.41 41.499 15.1073 40.995 16.7681 40.5889L16.0379 43.262L16.0315 43.2633L9.25742 67.3156C9.04442 68.0664 9.24405 68.874 9.78238 69.4391L64.0138 124.5L64.0125 124.494L64.0136 124.495C64.0136 124.495 73.3228 110.279 80.3909 104.024C81.0373 103.452 81.6359 102.93 82.187 102.449C87.6622 97.6731 88.4417 96.993 84.6627 92.3566C83.3933 90.7992 80.0525 86.7706 77.4513 84.2589C75.2418 82.1255 71.7993 79.3807 70.3326 78.2309C71.2533 73.2004 72.0524 65.9216 72.0524 65.9216L75.9813 66.4465C76.5999 66.5292 77.1628 66.0831 77.2183 65.4615C77.4477 62.8923 77.9646 56.5345 77.8716 52.3447C77.7887 48.612 77.588 44.9395 77.588 44.9395L77.5655 44.9422L77.4513 43.3022C84.9462 42.5616 92.3797 41.1157 95.5759 40.4874C96.0897 40.3865 96.1699 39.7092 95.6961 39.4862C93.5691 38.4853 89.502 36.6428 86.4531 35.6943C82.7907 34.5549 77.4096 33.4334 77.4096 33.4334C77.4096 33.4334 75.7434 23.6906 74.384 17.4952C73.2554 12.3517 70.9753 5.21469 69.911 1.98296C69.5825 0.985535 68.5969 0.369666 67.5581 0.523447C63.9319 1.06027 55.5626 2.42274 49.956 4.30311C47.3745 5.16891 45.4934 6.05513 43.5636 6.96429C41.9262 7.73571 40.2537 8.52364 38.0886 9.32963C33.3492 11.0939 27.4846 13.0025 24.7954 13.7512C24.1037 13.9439 23.5508 14.4544 23.3101 15.1308C22.6105 17.097 21.1242 21.3468 20.2436 24.3962C19.0413 28.5595 17.5007 34.6363 17.5007 34.6363C17.5007 34.6363 9.94864 34.8425 5.79595 35.0504C4.06502 35.137 1.77443 35.3883 0.482056 35.5323C0.068078 35.5785 -0.135808 36.0467 0.111977 36.3815ZM73.5182 56.5495C67.5935 54.8754 52.0549 50.4846 40.5262 48.4362C37.9451 47.9776 34.8782 47.5199 31.792 47.0977C31.3021 47.9642 30.9391 49.1374 31.0095 50.6842C31.1156 53.0163 33.0141 58.3778 33.7784 58.5336C34.1631 58.612 34.5858 58.4319 34.9747 58.2662C35.3585 58.1027 35.7093 57.9532 35.9578 58.0803C36.3202 58.2656 36.3829 58.5397 36.2539 58.9624C36.1524 59.295 34.4126 60.1798 32.1748 61.3178C29.9445 62.4521 27.2194 63.8379 25.1284 65.1795C22.4971 66.8677 18.8509 69.5706 17.5233 70.5647L47.8991 104.024L51.116 86.4824C51.2355 85.8305 51.8989 85.4305 52.5313 85.629L64.8471 89.4959C65.4474 89.6844 66.0821 89.3358 66.2373 88.726C66.7339 86.7741 67.3531 82.1687 67.6823 79.3496C68.2699 74.3174 68.7938 66.8519 68.8512 63.7502C68.865 63.0037 69.5961 62.4803 70.3068 62.7092L75.1414 64.2666C75.1414 64.2666 75.1414 61.3178 75.13 57.0033C74.7265 56.891 74.1829 56.7374 73.5182 56.5495ZM68.7304 43.7434C68.5758 43.7429 68.4223 43.7418 68.2699 43.7401C62.5324 43.6729 58.4533 43.2874 55.0676 42.76L56.3926 44.2206C56.3926 44.2206 58.6315 45.9945 60.5922 46.8931C64.4044 48.6403 67.8635 48.2579 67.8635 48.2579C67.8635 48.2579 68.4352 46.6809 68.6189 45.6732C68.7109 45.1685 68.7321 44.3925 68.7304 43.7434Z" fill="white"/>
<path d="M223.705 73.0063C227.276 76.8125 232.539 79.0211 238.977 79.0211C243.535 79.0211 247.435 77.5643 249.926 75.0739C251.852 73.1472 252.98 70.6098 252.98 67.6494C252.98 62.7154 249.503 60.4129 244.428 58.4862C239.917 56.7006 238.93 56.2307 238.93 54.868C238.93 53.5992 240.293 52.5655 242.501 52.5655C245.838 52.5655 248.704 53.9752 251.195 56.1367L256.833 49.887C253.685 46.8796 249.127 45 243.347 45C238.789 45 234.936 46.5037 232.445 48.9942C230.566 50.8738 229.438 53.3643 229.438 56.1837C229.438 61.0237 232.774 63.2323 237.943 65.2529C242.548 67.0385 243.441 67.6494 243.441 68.9651C243.441 70.4688 241.89 71.4086 239.729 71.4086C236.111 71.4086 232.774 69.9049 229.579 66.9445L223.705 73.0063Z" fill="white"/>
<path fill-rule="evenodd" clip-rule="evenodd" d="M144.972 101.312C144.972 92.9944 138.676 86.6037 129.278 86.6037C123.733 86.6037 118.94 88.8123 115.462 92.2896C111.844 95.9078 109.729 100.842 109.729 105.964C109.729 114.328 116.026 120.719 125.424 120.719C130.969 120.719 135.762 118.463 139.239 115.033C142.858 111.415 144.972 106.434 144.972 101.312ZM132.473 109.864C130.875 111.462 128.714 112.542 126.223 112.542C121.524 112.542 118.987 109.441 118.987 105.259C118.987 102.486 120.208 99.4791 122.229 97.4115C123.827 95.8138 125.988 94.78 128.479 94.78C133.178 94.78 135.715 97.8814 135.715 102.064C135.715 104.836 134.493 107.843 132.473 109.864Z" fill="white"/>
<path d="M153.828 87.2146L144.947 120.108H154.016L159.091 101.124L167.972 120.108H175.96L184.794 87.2146H175.772L170.838 105.494L162.286 87.2146H153.828Z" fill="white"/>
<path fill-rule="evenodd" clip-rule="evenodd" d="M181.658 120.108L190.539 87.2146H201.159C207.55 87.2146 211.544 88.9532 214.034 91.4437C216.478 93.8872 217.605 97.0826 217.605 101.077C217.605 106.011 215.726 110.522 212.202 114.046C208.254 117.993 202.569 120.108 194.956 120.108H181.658ZM206.61 97.2705C205.341 96.0488 203.32 95.25 200.172 95.25H197.494L192.983 112.026H195.99C199.843 112.026 203.273 110.851 205.435 108.689C207.174 106.951 208.254 104.413 208.254 101.782C208.254 99.761 207.643 98.3043 206.61 97.2705Z" fill="white"/>
<path d="M78.5591 114.892C80.9556 118.604 85.1377 120.672 89.7428 120.672C94.1129 120.672 97.4492 119.403 99.7987 117.053C102.054 114.798 103.417 112.026 104.686 107.279L110.043 87.2146H100.974L96.0395 105.541C95.0997 109.018 94.4888 110.287 93.549 111.18C92.6092 112.166 91.3875 112.683 90.0247 112.683C88.0511 112.683 86.4535 111.791 84.7618 109.488L78.5591 114.892Z" fill="white"/>
<path d="M192.788 78.4572L201.669 45.5639H227.984L225.869 53.2703H208.577L207.214 58.2983H222.909L220.982 65.4408H205.287L203.878 70.7037H221.452L219.385 78.4572H192.788Z" fill="white"/>
<path d="M152.084 78.4572L160.966 45.5639H170.129L174.499 58.2983L185.683 45.5639H195.926L187.092 78.4572H177.929L183.004 59.567L171.21 72.4424H171.022L166.182 59.614L161.107 78.4572H152.084Z" fill="white"/>
<path fill-rule="evenodd" clip-rule="evenodd" d="M112.735 78.4572L135.619 45.3289H144.548L149.67 78.4572H140.084L139.285 72.5364H126.597L122.65 78.4572H112.735ZM131.202 65.4408H138.58L137.358 56.0427L131.202 65.4408Z" fill="white"/>
<path fill-rule="evenodd" clip-rule="evenodd" d="M82.0577 78.4572L90.9389 45.5639H104.613C113.541 45.5639 116.455 49.2291 116.455 53.4583C116.455 57.6404 113.682 60.7418 109.077 61.8696C111.991 62.9033 114.058 65.0649 114.058 68.4482C114.058 74.134 109.312 78.4572 99.1152 78.4572H82.0577ZM92.9125 71.1267H99.8201C102.968 71.1267 104.895 69.717 104.895 67.6494C104.895 65.9577 103.532 65.0649 100.901 65.0649H94.5572L92.9125 71.1267ZM96.2958 58.6742H102.452C105.741 58.6742 107.48 57.4055 107.48 55.3379C107.48 53.7872 106.258 52.8944 103.485 52.8944H97.7995L96.2958 58.6742Z" fill="white"/>
</svg>
